<?xml version="1.0" encoding="UTF-8"?>
<svg width="73px" height="144px" viewBox="0 0 73 144" version="1.1" xmlns="http://www.w3.org/2000/svg" xmlns:xlink="http://www.w3.org/1999/xlink">
    <!-- Generator: Sketch 52.2 (67145) - http://www.bohemiancoding.com/sketch -->
    <title>f0</title>
    <desc>Created with Sketch.</desc>
    <defs>
        <path d="M70.074,43.895 C70.01,12.826 50,1.293 36,0.701 C36,0.69 36,0.671 36,0.671 C36,0.671 35.709,0.682 35.5,0.687 C35.291,0.683 35,0.673 35,0.673 C35,0.673 35,0.692 35,0.703 C20,1.356 0.867,12.969 0.931,44.038 C0.995,74.935 22,84.066 35,84.616 C35,84.625 35,84.637 35,84.647 C35,84.647 35.29,84.638 35.5,84.632 C35.71,84.637 36,84.645 36,84.645 C36,84.636 36,84.624 36,84.614 C49,84.009 70.138,74.792 70.074,43.895" id="path-1"></path>
    </defs>
    <g id="Page-2" stroke="none" stroke-width="1" fill="none" fill-rule="evenodd">
        <g id="f0" transform="translate(1.000000, 2.000000)">
            <path d="M1.212,38.213 C1.212,38.213 20.704,49.504 23.93,63.736 C37.006,63.999 49.499,63.682 49.499,63.682 C49.499,63.682 47.73,50.901 69.212,41.268 C68.329,36.039 53.584,36.578 50.757,39.417 C51.616,33.314 48.45,30.378 60.728,13.899 C51.466,13.81 47.223,17.087 41.027,23.856 C38.07,16.67 36.089,7.304 37.817,0 C37.817,0 25.843,5.763 27.484,26.39 C21.375,22.916 16.174,19.549 5.282,21.424 C18.037,24.557 21.011,40.242 21.011,40.242 C21.011,40.242 12.9,34.593 1.212,38.213" id="Fill-111" fill="#7EB641"></path>
            <path d="M1.212,38.213 C1.212,38.213 20.704,49.504 23.93,63.736 C37.006,63.999 49.499,63.682 49.499,63.682 C49.499,63.682 47.73,50.901 69.212,41.268 C68.329,36.039 53.584,36.578 50.757,39.417 C51.616,33.314 48.45,30.378 60.728,13.899 C51.466,13.81 47.223,17.087 41.027,23.856 C38.07,16.67 36.089,7.304 37.817,0 C37.817,0 25.843,5.763 27.484,26.39 C21.375,22.916 16.174,19.549 5.282,21.424 C18.037,24.557 21.011,40.242 21.011,40.242 C21.011,40.242 12.9,34.593 1.212,38.213 Z" id="Stroke-112" stroke="#6A893C" stroke-width="3.366" stroke-linecap="round" stroke-linejoin="round"></path>
            <path d="M69.596,98.956 C69.532,67.887 50.522,56.354 35.522,55.762 C35.522,55.751 35.522,55.732 35.522,55.732 C35.522,55.732 35.731,55.743 35.522,55.748 C35.313,55.744 35.522,55.734 35.522,55.734 C35.522,55.734 35.522,55.753 35.522,55.764 C19.522,56.417 1.389,68.03 1.453,99.099 C1.517,129.996 21.522,139.127 35.522,139.677 C35.522,139.686 35.522,139.698 35.522,139.708 C35.522,139.708 35.312,139.699 35.522,139.693 C35.732,139.698 35.522,139.706 35.522,139.706 C35.522,139.697 35.522,139.685 35.522,139.675 C48.522,139.072 69.66,129.853 69.596,98.956" id="Fill-113" fill="#F9C822"></path>
            <path d="M69.596,98.956 C69.532,67.887 50.522,56.354 35.522,55.762 C35.522,55.751 35.522,55.732 35.522,55.732 C35.522,55.732 35.731,55.743 35.522,55.748 C35.313,55.744 35.522,55.734 35.522,55.734 C35.522,55.734 35.522,55.753 35.522,55.764 C19.522,56.417 1.389,68.03 1.453,99.099 C1.517,129.996 21.522,139.127 35.522,139.677 C35.522,139.686 35.522,139.698 35.522,139.708 C35.522,139.708 35.312,139.699 35.522,139.693 C35.732,139.698 35.522,139.706 35.522,139.706 C35.522,139.697 35.522,139.685 35.522,139.675 C48.522,139.072 69.66,129.853 69.596,98.956 Z" id="Stroke-114" stroke="#FFDB1A" stroke-width="3"></path>
            <g id="Group-124" transform="translate(0.022000, 55.061000)">
                <mask id="mask-2" fill="white">
                    <use xlink:href="#path-1"></use>
                </mask>
                <g id="Clip-116"></g>
                <polyline id="Fill-115" fill="#FFDD18" mask="url(#mask-2)" points="-16.145 55.047 -14.292 56.892 45.988 -3.639 44.135 -5.485 -16.145 55.047"></polyline>
                <polyline id="Fill-117" fill="#FFDD18" mask="url(#mask-2)" points="2.18 64.597 4.033 66.443 64.314 5.911 62.461 4.066 2.18 64.597"></polyline>
                <polyline id="Fill-118" fill="#FFDD18" mask="url(#mask-2)" points="13.545 80.264 15.398 82.11 75.678 21.578 73.825 19.733 13.545 80.264"></polyline>
                <polyline id="Fill-119" fill="#FFDD18" mask="url(#mask-2)" points="21.43 99.426 23.283 101.271 83.563 40.74 81.71 38.894 21.43 99.426"></polyline>
                <polyline id="Fill-120" fill="#FFDD18" mask="url(#mask-2)" points="85.218 48.84 87.063 46.987 26.532 -13.293 24.687 -11.44 85.218 48.84"></polyline>
                <polyline id="Fill-121" fill="#FFDD18" mask="url(#mask-2)" points="72.171 62.814 74.017 60.961 13.485 0.681 11.64 2.534 72.171 62.814"></polyline>
                <polyline id="Fill-122" fill="#FFDD18" mask="url(#mask-2)" points="65.239 82.878 67.085 81.025 6.553 20.745 4.708 22.598 65.239 82.878"></polyline>
                <polyline id="Fill-123" fill="#FFDD18" mask="url(#mask-2)" points="52.195 97.724 54.04 95.871 -6.491 35.591 -8.337 37.444 52.195 97.724"></polyline>
            </g>
        </g>
    </g>
</svg>