<?xml version="1.0" encoding="UTF-8"?>
<svg width="96px" height="119px" viewBox="0 0 96 119" version="1.1" xmlns="http://www.w3.org/2000/svg" xmlns:xlink="http://www.w3.org/1999/xlink">
    <!-- Generator: Sketch 52.2 (67145) - http://www.bohemiancoding.com/sketch -->
    <title>f1</title>
    <desc>Created with Sketch.</desc>
    <g id="Page-2" stroke="none" stroke-width="1" fill="none" fill-rule="evenodd">
        <g id="f1" transform="translate(2.000000, 3.000000)">
            <path d="M1.38220601,11.126 C1.38220601,11.126 -8.66579399,48.957 25.421206,58.021 C28.449206,31.618 18.721206,16.249 1.38220601,11.126" id="Fill-35" fill="#009748"></path>
            <path d="M1.38220601,11.126 C1.38220601,11.126 -8.66579399,48.957 25.421206,58.021 C28.449206,31.618 18.721206,16.249 1.38220601,11.126 Z" id="Stroke-36" stroke="#59B473" stroke-width="4"></path>
            <path d="M72.162206,0 C72.162206,0 42.516206,25.559 65.541206,52.279 C82.942206,32.192 83.585206,14.015 72.162206,0" id="Fill-37" fill="#009748"></path>
            <path d="M72.162206,0 C72.162206,0 42.516206,25.559 65.541206,52.279 C82.942206,32.192 83.585206,14.015 72.162206,0 Z" id="Stroke-38" stroke="#59B473" stroke-width="4"></path>
            <path d="M48.763206,59.951 C48.763206,59.951 19.117206,85.51 42.142206,112.23 C59.543206,92.143 60.186206,73.965 48.763206,59.951" id="Fill-39" fill="#009748"></path>
            <path d="M48.763206,59.951 C48.763206,59.951 19.117206,85.51 42.142206,112.23 C59.543206,92.143 60.186206,73.965 48.763206,59.951 Z" id="Stroke-40" stroke="#59B473" stroke-width="4"></path>
            <path d="M90.569206,39.894 C90.569206,39.894 69.299206,30.282 60.633206,49.447 C75.867206,53.811 85.859206,49.593 90.569206,39.894" id="Fill-41" fill="#009748"></path>
            <path d="M90.569206,39.894 C90.569206,39.894 69.299206,30.282 60.633206,49.447 C75.867206,53.811 85.859206,49.593 90.569206,39.894 Z" id="Stroke-42" stroke="#59B473" stroke-width="4"></path>
            <path d="M66.404206,41.798 C66.404206,53.551 56.877206,63.078 45.124206,63.078 C33.372206,63.078 23.844206,53.551 23.844206,41.798 C23.844206,30.045 33.372206,20.518 45.124206,20.518 C56.877206,20.518 66.404206,30.045 66.404206,41.798" id="Fill-43" fill="#565070"></path>
            <path d="M66.404206,41.798 C66.404206,53.551 56.877206,63.078 45.124206,63.078 C33.372206,63.078 23.844206,53.551 23.844206,41.798 C23.844206,30.045 33.372206,20.518 45.124206,20.518 C56.877206,20.518 66.404206,30.045 66.404206,41.798 Z" id="Stroke-44" stroke="#6D629C" stroke-width="4"></path>
            <path d="M48.671206,69.777 C48.671206,81.53 39.143206,91.057 27.391206,91.057 C15.638206,91.057 6.11120601,81.53 6.11120601,69.777 C6.11120601,58.025 15.638206,48.497 27.391206,48.497 C39.143206,48.497 48.671206,58.025 48.671206,69.777" id="Fill-45" fill="#565070"></path>
            <path d="M48.671206,69.777 C48.671206,81.53 39.143206,91.057 27.391206,91.057 C15.638206,91.057 6.11120601,81.53 6.11120601,69.777 C6.11120601,58.025 15.638206,48.497 27.391206,48.497 C39.143206,48.497 48.671206,58.025 48.671206,69.777 Z" id="Stroke-46" stroke="#6D629C" stroke-width="4"></path>
            <path d="M87.684206,69.777 C87.684206,81.53 78.157206,91.057 66.404206,91.057 C54.651206,91.057 45.124206,81.53 45.124206,69.777 C45.124206,58.025 54.651206,48.497 66.404206,48.497 C78.157206,48.497 87.684206,58.025 87.684206,69.777" id="Fill-47" fill="#565070"></path>
            <path d="M87.684206,69.777 C87.684206,81.53 78.157206,91.057 66.404206,91.057 C54.651206,91.057 45.124206,81.53 45.124206,69.777 C45.124206,58.025 54.651206,48.497 66.404206,48.497 C78.157206,48.497 87.684206,58.025 87.684206,69.777 Z" id="Stroke-48" stroke="#6D629C" stroke-width="4"></path>
            <path d="M75.369206,75.557 C75.369206,77.352 73.914206,78.808 72.118206,78.808 C70.323206,78.808 68.867206,77.352 68.867206,75.557 C68.867206,73.761 70.323206,72.306 72.118206,72.306 C73.914206,72.306 75.369206,73.761 75.369206,75.557" id="Fill-49" fill="#EBE1E9"></path>
            <path d="M56.369206,45.557 C56.369206,47.352 54.914206,48.808 53.118206,48.808 C51.323206,48.808 49.867206,47.352 49.867206,45.557 C49.867206,43.761 51.323206,42.306 53.118206,42.306 C54.914206,42.306 56.369206,43.761 56.369206,45.557" id="Fill-50" fill="#EBE1E9"></path>
            <path d="M36.369206,80.557 C36.369206,82.352 34.914206,83.808 33.118206,83.808 C31.323206,83.808 29.867206,82.352 29.867206,80.557 C29.867206,78.761 31.323206,77.306 33.118206,77.306 C34.914206,77.306 36.369206,78.761 36.369206,80.557" id="Fill-51" fill="#EBE1E9"></path>
        </g>
    </g>
</svg>