<?xml version="1.0" encoding="UTF-8"?>
<svg width="119px" height="98px" viewBox="0 0 119 98" version="1.1" xmlns="http://www.w3.org/2000/svg" xmlns:xlink="http://www.w3.org/1999/xlink">
    <!-- Generator: Sketch 52.2 (67145) - http://www.bohemiancoding.com/sketch -->
    <title>f2</title>
    <desc>Created with Sketch.</desc>
    <g id="Page-2" stroke="none" stroke-width="1" fill="none" fill-rule="evenodd">
        <g id="f2" transform="translate(2.000000, 2.000000)">
            <path d="M0.636,55.184 C1.342,57.313 2.808,60.32 4.152,62.812 C19.501,91.29 55.07,101.936 83.548,86.587 C112.026,71.238 122.669,35.672 107.32,7.194 C105.976,4.701 104.23,1.858 102.84,0.097" id="Fill-95" fill="#00A549"></path>
            <path d="M0.636,55.184 C1.342,57.313 2.808,60.32 4.152,62.812 C19.501,91.29 55.07,101.936 83.548,86.587 C112.026,71.238 122.669,35.672 107.32,7.194 C105.976,4.701 104.23,1.858 102.84,0.097" id="Stroke-96" stroke="#008643" stroke-width="3.357" stroke-linecap="round"></path>
            <path d="M5.637,52.488 C6.025,53.952 7.31,56.921 8.529,59.183 C22.46,85.029 54.592,94.577 80.438,80.646 C106.284,66.716 116.031,34.682 102.1,8.836 C100.881,6.574 99.131,3.769 98.122,2.64" id="Fill-97" fill="#E15A46"></path>
            <path d="M5.637,52.488 C6.025,53.952 7.31,56.921 8.529,59.183 C22.46,85.029 54.592,94.577 80.438,80.646 C106.284,66.716 116.031,34.682 102.1,8.836 C100.881,6.574 99.131,3.769 98.122,2.64" id="Stroke-98" stroke="#E67959" stroke-width="3.357" stroke-linecap="round" stroke-linejoin="round"></path>
            <path d="M19.641,49.981 C19.641,49.981 18.778,58.009 22.749,55.937 C26.72,53.866 19.641,49.981 19.641,49.981" id="Fill-99" fill="#904A49"></path>
            <path d="M37.795,40.196 C37.795,40.196 36.932,48.224 40.903,46.152 C44.874,44.08 37.795,40.196 37.795,40.196" id="Fill-100" fill="#904A49"></path>
            <path d="M55.95,30.411 C55.95,30.411 55.087,38.439 59.058,36.367 C63.029,34.295 55.95,30.411 55.95,30.411" id="Fill-101" fill="#904A49"></path>
            <path d="M74.105,20.626 C74.105,20.626 73.241,28.654 77.212,26.582 C81.183,24.51 74.105,20.626 74.105,20.626" id="Fill-102" fill="#904A49"></path>
            <path d="M92.259,10.841 C92.259,10.841 91.396,18.869 95.367,16.797 C99.338,14.725 92.259,10.841 92.259,10.841" id="Fill-103" fill="#904A49"></path>
            <path d="M92.268,32.591 C92.268,32.591 91.405,40.619 95.376,38.547 C99.347,36.476 92.268,32.591 92.268,32.591" id="Fill-104" fill="#904A49"></path>
            <path d="M72.601,43.191 C72.601,43.191 71.737,51.22 75.708,49.148 C79.679,47.076 72.601,43.191 72.601,43.191" id="Fill-105" fill="#904A49"></path>
            <path d="M52.933,53.792 C52.933,53.792 52.07,61.82 56.041,59.748 C60.012,57.677 52.933,53.792 52.933,53.792" id="Fill-106" fill="#904A49"></path>
            <path d="M33.178,64.23 C33.178,64.23 32.315,72.259 36.286,70.187 C40.257,68.115 33.178,64.23 33.178,64.23" id="Fill-107" fill="#904A49"></path>
            <path d="M92.659,52.462 C92.659,52.462 91.795,60.491 95.766,58.419 C99.737,56.347 92.659,52.462 92.659,52.462" id="Fill-108" fill="#904A49"></path>
            <path d="M72.991,63.063 C72.991,63.063 72.128,71.091 76.099,69.019 C80.07,66.947 72.991,63.063 72.991,63.063" id="Fill-109" fill="#904A49"></path>
            <path d="M53.236,73.501 C53.236,73.501 52.373,81.529 56.344,79.458 C60.315,77.386 53.236,73.501 53.236,73.501" id="Fill-110" fill="#904A49"></path>
        </g>
    </g>
</svg>