<?xml version="1.0" encoding="UTF-8"?>
<svg width="89px" height="123px" viewBox="0 0 89 123" version="1.1" xmlns="http://www.w3.org/2000/svg" xmlns:xlink="http://www.w3.org/1999/xlink">
    <!-- Generator: Sketch 52.2 (67145) - http://www.bohemiancoding.com/sketch -->
    <title>f3</title>
    <desc>Created with Sketch.</desc>
    <g id="Page-2" stroke="none" stroke-width="1" fill="none" fill-rule="evenodd">
        <g id="f3" transform="translate(2.000000, 2.000000)">
            <path d="M82.9536696,50.8981306 C72.9906696,30.7721306 53.5806696,35.4731306 42.4926696,35.4841306 C31.4046696,35.4731306 11.9936696,30.7721306 2.0316696,50.8981306 C-7.6173304,70.3901306 19.0346696,115.810131 41.3046696,118.747131 C41.7016696,118.800131 42.0986696,118.840131 42.4926696,118.865131 C42.8866696,118.840131 43.2826696,118.800131 43.6806696,118.747131 C65.9506696,115.810131 92.6026696,70.3901306 82.9536696,50.8981306" id="Fill-85" fill="#E2614C"></path>
            <path d="M82.9536696,50.8981306 C72.9906696,30.7721306 53.5806696,35.4731306 42.4926696,35.4841306 C31.4046696,35.4731306 11.9936696,30.7721306 2.0316696,50.8981306 C-7.6173304,70.3901306 19.0346696,115.810131 41.3046696,118.747131 C41.7016696,118.800131 42.0986696,118.840131 42.4926696,118.865131 C42.8866696,118.840131 43.2826696,118.800131 43.6806696,118.747131 C65.9506696,115.810131 92.6026696,70.3901306 82.9536696,50.8981306 Z" id="Stroke-86" stroke="#DE4B3A" stroke-width="4" stroke-linecap="round" stroke-linejoin="round"></path>
            <path d="M68.46,21.559 C61.773,19.452 55.522,19.819 50.664,21.238 C51.16,15.51 49.367,7.21 42.906,-5.68434189e-14 C35.341,7.281 34.29,15.722 34.953,21.289 C30.073,19.83 23.761,19.428 17,21.559 C21.84,33.913 32.579,37.48 37.443,37.893 C38.82,38.086 40.656,38.205 42.679,38.205 C44.659,38.205 46.458,38.091 47.824,37.905 C52.589,37.573 63.553,34.083 68.46,21.559" id="Fill-87" fill="#00A549"></path>
            <path d="M68.46,21.559 C61.773,19.452 55.522,19.819 50.664,21.238 C51.16,15.51 49.367,7.21 42.906,-5.68434189e-14 C35.341,7.281 34.29,15.722 34.953,21.289 C30.073,19.83 23.761,19.428 17,21.559 C21.84,33.913 32.579,37.48 37.443,37.893 C38.82,38.086 40.656,38.205 42.679,38.205 C44.659,38.205 46.458,38.091 47.824,37.905 C52.589,37.573 63.553,34.083 68.46,21.559 Z" id="Stroke-88" stroke="#008643" stroke-width="4" stroke-linecap="round" stroke-linejoin="round"></path>
            <path d="M42.6780052,60.3515576 C42.6780052,60.3515576 49.0370052,51.0845576 42.8030052,51.0005576 C36.5700052,50.9165576 42.6780052,60.3515576 42.6780052,60.3515576" id="Fill-89" fill="#F9D4A6"></path>
            <path d="M11.6777149,60.3515576 C11.6777149,60.3515576 18.0367149,51.0845576 11.8037149,51.0005576 C5.5697149,50.9165576 11.6777149,60.3515576 11.6777149,60.3515576" id="Fill-90" fill="#F9D4A6"></path>
            <path d="M70.6777149,60.3515576 C70.6777149,60.3515576 77.0377149,51.0845576 70.8037149,51.0005576 C64.5697149,50.9165576 70.6777149,60.3515576 70.6777149,60.3515576" id="Fill-91" fill="#F9D2A7"></path>
            <path d="M56.6777149,81.3505576 C56.6777149,81.3505576 63.0367149,72.0835576 56.8037149,72.0005576 C50.5697149,71.9165576 56.6777149,81.3505576 56.6777149,81.3505576" id="Fill-92" fill="#F9D4A6"></path>
            <path d="M27.6777149,81.3505576 C27.6777149,81.3505576 34.0377149,72.0835576 27.8037149,72.0005576 C21.5697149,71.9165576 27.6777149,81.3505576 27.6777149,81.3505576" id="Fill-93" fill="#F9D4A6"></path>
            <path d="M42.6772705,106.350558 C42.6772705,106.350558 49.0372705,97.0845576 42.8032705,97.0005576 C36.5702705,96.9165576 42.6772705,106.350558 42.6772705,106.350558" id="Fill-94" fill="#F9D4A6"></path>
        </g>
    </g>
</svg>