<?xml version="1.0" encoding="UTF-8"?>
<svg width="89px" height="112px" viewBox="0 0 89 112" version="1.1" xmlns="http://www.w3.org/2000/svg" xmlns:xlink="http://www.w3.org/1999/xlink">
    <!-- Generator: Sketch 52.2 (67145) - http://www.bohemiancoding.com/sketch -->
    <title>f4</title>
    <desc>Created with Sketch.</desc>
    <g id="Page-2" stroke="none" stroke-width="1" fill="none" fill-rule="evenodd">
        <g id="f4" transform="translate(2.000000, 2.000000)">
            <path d="M80.624,69.599 C90.377,47.423 80.512,23.32 69.515,12.762 C70.031,11.163 72.097,3.642 66.209,1.053 C60.228,-1.578 55.727,5.148 54.933,6.437 C39.884,5.404 16.454,13.582 5.582,36.593 C-5.4,59.836 3.134,83.92 15.992,94.978 C15.459,96.644 13.459,104.082 19.308,106.655 C25.05,109.18 29.425,103.085 30.469,101.453 C47.191,103.424 70.593,92.405 80.624,69.599" id="Fill-222" fill="#F9C822"></path>
            <path d="M80.624,69.599 C90.377,47.423 80.512,23.32 69.515,12.762 C70.031,11.163 72.097,3.642 66.209,1.053 C60.228,-1.578 55.727,5.148 54.933,6.437 C39.884,5.404 16.454,13.582 5.582,36.593 C-5.4,59.836 3.134,83.92 15.992,94.978 C15.459,96.644 13.459,104.082 19.308,106.655 C25.05,109.18 29.425,103.085 30.469,101.453 C47.191,103.424 70.593,92.405 80.624,69.599 Z" id="Stroke-223" stroke="#FFDB1A" stroke-width="4"></path>
            <path d="M38.426,19.916 C30.951,22.436 23.648,25.921 19.019,32.582 C14.488,39.1 12.1,47.219 12.043,55.129 C11.993,62.283 13.153,69.278 16.193,75.791" id="Fill-224" fill="#F9C822"></path>
            <path d="M38.426,19.916 C30.951,22.436 23.648,25.921 19.019,32.582 C14.488,39.1 12.1,47.219 12.043,55.129 C11.993,62.283 13.153,69.278 16.193,75.791" id="Stroke-225" stroke="#FFDB1A" stroke-width="4" stroke-linecap="round" stroke-linejoin="round"></path>
        </g>
    </g>
</svg>