<?xml version="1.0" encoding="UTF-8"?>
<svg width="105px" height="126px" viewBox="0 0 105 126" version="1.1" xmlns="http://www.w3.org/2000/svg" xmlns:xlink="http://www.w3.org/1999/xlink">
    <!-- Generator: Sketch 52.2 (67145) - http://www.bohemiancoding.com/sketch -->
    <title>f5</title>
    <desc>Created with Sketch.</desc>
    <g id="Page-2" stroke="none" stroke-width="1" fill="none" fill-rule="evenodd">
        <g id="f5" transform="translate(2.000000, 2.000000)">
            <path d="M100.538,35.27 C100.538,43.703 93.702,50.539 85.269,50.539 C76.836,50.539 70,43.703 70,35.27 C70,26.837 76.836,20 85.269,20 C93.702,20 100.538,26.837 100.538,35.27" id="Fill-166" fill="#696C75"></path>
            <path d="M100.538,35.27 C100.538,43.703 93.702,50.539 85.269,50.539 C76.836,50.539 70,43.703 70,35.27 C70,26.837 76.836,20 85.269,20 C93.702,20 100.538,26.837 100.538,35.27 Z" id="Stroke-167" stroke="#314367" stroke-width="3.525"></path>
            <path d="M34,-2.48689958e-14 C34,-2.48689958e-14 38.975,14.125 63.372,11.557 C49.89,13.483 55.828,12.463 48.686,40.58" id="Stroke-168" stroke="#A4876B" stroke-width="3.525" stroke-linecap="round" stroke-linejoin="round"></path>
            <path d="M61.539,106.269 C61.539,114.702 54.703,121.538 46.269,121.538 C37.836,121.538 31,114.702 31,106.269 C31,97.836 37.836,91 46.269,91 C54.703,91 61.539,97.836 61.539,106.269" id="Fill-169" fill="#696C75"></path>
            <path d="M61.539,106.269 C61.539,114.702 54.703,121.538 46.269,121.538 C37.836,121.538 31,114.702 31,106.269 C31,97.836 37.836,91 46.269,91 C54.703,91 61.539,97.836 61.539,106.269 Z" id="Stroke-170" stroke="#314367" stroke-width="3.525"></path>
            <path d="M48.539,84.27 C48.539,92.703 41.703,99.539 33.27,99.539 C24.837,99.539 18,92.703 18,84.27 C18,75.837 24.837,69 33.27,69 C41.703,69 48.539,75.837 48.539,84.27" id="Fill-171" fill="#696C75"></path>
            <path d="M48.539,84.27 C48.539,92.703 41.703,99.539 33.27,99.539 C24.837,99.539 18,92.703 18,84.27 C18,75.837 24.837,69 33.27,69 C41.703,69 48.539,75.837 48.539,84.27 Z" id="Stroke-172" stroke="#314367" stroke-width="3.525"></path>
            <path d="M76.538,86.269 C76.538,94.702 69.702,101.539 61.269,101.539 C52.836,101.539 46,94.702 46,86.269 C46,77.836 52.836,71 61.269,71 C69.702,71 76.538,77.836 76.538,86.269" id="Fill-173" fill="#696C75"></path>
            <path d="M76.538,86.269 C76.538,94.702 69.702,101.539 61.269,101.539 C52.836,101.539 46,94.702 46,86.269 C46,77.836 52.836,71 61.269,71 C69.702,71 76.538,77.836 76.538,86.269 Z" id="Stroke-174" stroke="#314367" stroke-width="3.525"></path>
            <path d="M88.539,61.269 C88.539,69.702 81.702,76.539 73.269,76.539 C64.836,76.539 58,69.702 58,61.269 C58,52.836 64.836,46 73.269,46 C81.702,46 88.539,52.836 88.539,61.269" id="Fill-175" fill="#696C75"></path>
            <path d="M88.539,61.269 C88.539,69.702 81.702,76.539 73.269,76.539 C64.836,76.539 58,69.702 58,61.269 C58,52.836 64.836,46 73.269,46 C81.702,46 88.539,52.836 88.539,61.269 Z" id="Stroke-176" stroke="#314367" stroke-width="3.525"></path>
            <path d="M63.538,61.269 C63.538,69.702 56.702,76.539 48.269,76.539 C39.836,76.539 33,69.702 33,61.269 C33,52.836 39.836,46 48.269,46 C56.702,46 63.538,52.836 63.538,61.269" id="Fill-177" fill="#696C75"></path>
            <path d="M63.538,61.269 C63.538,69.702 56.702,76.539 48.269,76.539 C39.836,76.539 33,69.702 33,61.269 C33,52.836 39.836,46 48.269,46 C56.702,46 63.538,52.836 63.538,61.269 Z" id="Stroke-178" stroke="#314367" stroke-width="3.525"></path>
            <path d="M39.539,58.269 C39.539,66.702 32.702,73.539 24.269,73.539 C15.836,73.539 9,66.702 9,58.269 C9,49.836 15.836,43 24.269,43 C32.702,43 39.539,49.836 39.539,58.269" id="Fill-179" fill="#696C75"></path>
            <path d="M39.539,58.269 C39.539,66.702 32.702,73.539 24.269,73.539 C15.836,73.539 9,66.702 9,58.269 C9,49.836 15.836,43 24.269,43 C32.702,43 39.539,49.836 39.539,58.269 Z" id="Stroke-180" stroke="#314367" stroke-width="3.525"></path>
            <path d="M30.539,33.269 C30.539,41.702 23.703,48.538 15.27,48.538 C6.837,48.538 -1.77635684e-15,41.702 -1.77635684e-15,33.269 C-1.77635684e-15,24.836 6.837,18 15.27,18 C23.703,18 30.539,24.836 30.539,33.269" id="Fill-181" fill="#696C75"></path>
            <path d="M30.539,33.269 C30.539,41.702 23.703,48.538 15.27,48.538 C6.837,48.538 -1.77635684e-15,41.702 -1.77635684e-15,33.269 C-1.77635684e-15,24.836 6.837,18 15.27,18 C23.703,18 30.539,24.836 30.539,33.269 Z" id="Stroke-182" stroke="#314367" stroke-width="3.525"></path>
            <path d="M78.539,35.27 C78.539,43.703 71.703,50.539 63.27,50.539 C54.837,50.539 48,43.703 48,35.27 C48,26.837 54.837,20 63.27,20 C71.703,20 78.539,26.837 78.539,35.27" id="Fill-183" fill="#696C75"></path>
            <path d="M78.539,35.27 C78.539,43.703 71.703,50.539 63.27,50.539 C54.837,50.539 48,43.703 48,35.27 C48,26.837 54.837,20 63.27,20 C71.703,20 78.539,26.837 78.539,35.27 Z" id="Stroke-184" stroke="#314367" stroke-width="3.525"></path>
            <path d="M57.539,35.27 C57.539,43.703 50.703,50.539 42.269,50.539 C33.836,50.539 27,43.703 27,35.27 C27,26.837 33.836,20 42.269,20 C50.703,20 57.539,26.837 57.539,35.27" id="Fill-185" fill="#696C75"></path>
            <path d="M57.539,35.27 C57.539,43.703 50.703,50.539 42.269,50.539 C33.836,50.539 27,43.703 27,35.27 C27,26.837 33.836,20 42.269,20 C50.703,20 57.539,26.837 57.539,35.27 Z" id="Stroke-186" stroke="#314367" stroke-width="3.525"></path>
            <path d="M69.297,39.648 C69.297,41.111 68.111,42.297 66.648,42.297 C65.185,42.297 64,41.111 64,39.648 C64,38.186 65.185,37 66.648,37 C68.111,37 69.297,38.186 69.297,39.648" id="Fill-187" fill="#314367"></path>
            <path d="M15.297,34.649 C15.297,36.111 14.111,37.297 12.649,37.297 C11.186,37.297 10,36.111 10,34.649 C10,33.186 11.186,32 12.649,32 C14.111,32 15.297,33.186 15.297,34.649" id="Fill-188" fill="#314367"></path>
            <path d="M25.297,63.648 C25.297,65.111 24.111,66.297 22.649,66.297 C21.186,66.297 20,65.111 20,63.648 C20,62.185 21.186,61 22.649,61 C24.111,61 25.297,62.185 25.297,63.648" id="Fill-189" fill="#314367"></path>
            <path d="M50.297,65.649 C50.297,67.112 49.111,68.297 47.649,68.297 C46.186,68.297 45,67.112 45,65.649 C45,64.186 46.186,63 47.649,63 C49.111,63 50.297,64.186 50.297,65.649" id="Fill-190" fill="#314367"></path>
            <path d="M75.297,65.649 C75.297,67.112 74.112,68.297 72.649,68.297 C71.186,68.297 70,67.112 70,65.649 C70,64.186 71.186,63 72.649,63 C74.112,63 75.297,64.186 75.297,65.649" id="Fill-191" fill="#314367"></path>
            <path d="M62.297,90.648 C62.297,92.111 61.111,93.296 59.648,93.296 C58.186,93.296 57,92.111 57,90.648 C57,89.185 58.186,88 59.648,88 C61.111,88 62.297,89.185 62.297,90.648" id="Fill-192" fill="#314367"></path>
            <path d="M35.297,87.648 C35.297,89.111 34.111,90.297 32.648,90.297 C31.186,90.297 30,89.111 30,87.648 C30,86.185 31.186,85 32.648,85 C34.111,85 35.297,86.185 35.297,87.648" id="Fill-193" fill="#314367"></path>
            <path d="M47.297,112.648 C47.297,114.111 46.112,115.297 44.649,115.297 C43.186,115.297 42,114.111 42,112.648 C42,111.185 43.186,110 44.649,110 C46.112,110 47.297,111.185 47.297,112.648" id="Fill-194" fill="#314367"></path>
            <path d="M44.297,39.648 C44.297,41.111 43.111,42.297 41.648,42.297 C40.185,42.297 39,41.111 39,39.648 C39,38.186 40.185,37 41.648,37 C43.111,37 44.297,38.186 44.297,39.648" id="Fill-195" fill="#314367"></path>
            <path d="M93.297,34.649 C93.297,36.112 92.111,37.297 90.648,37.297 C89.185,37.297 88,36.112 88,34.649 C88,33.186 89.185,32 90.648,32 C92.111,32 93.297,33.186 93.297,34.649" id="Fill-196" fill="#314367"></path>
        </g>
    </g>
</svg>