<?xml version="1.0" encoding="UTF-8"?>
<svg width="94px" height="126px" viewBox="0 0 94 126" version="1.1" xmlns="http://www.w3.org/2000/svg" xmlns:xlink="http://www.w3.org/1999/xlink">
    <!-- Generator: Sketch 52.2 (67145) - http://www.bohemiancoding.com/sketch -->
    <title>f6</title>
    <desc>Created with Sketch.</desc>
    <g id="Page-2" stroke="none" stroke-width="1" fill="none" fill-rule="evenodd">
        <g id="f6" transform="translate(2.000000, 2.000000)">
            <path d="M2,1.62137762 C2,1.62137762 8.422,34.0693776 42.222,22.5773776 C43.912,-0.0686223789 17.21,-2.43462238 2,1.62137762" id="Fill-226" fill="#00A549"></path>
            <path d="M2,1.62137762 C2,1.62137762 8.422,34.0693776 42.222,22.5773776 C43.912,-0.0686223789 17.21,-2.43462238 2,1.62137762 Z" id="Stroke-227" stroke="#008643" stroke-width="4" stroke-linecap="round" stroke-linejoin="round"></path>
            <path d="M48.3849354,32.336 C48.3849354,32.336 35.7659354,25.576 53.3419354,8" id="Stroke-228" stroke="#A4876B" stroke-width="4" stroke-linecap="round" stroke-linejoin="round"></path>
            <path d="M0,74.742 C0,101.286 19.694,121.836 43.241,121.836 C66.788,121.836 89.051,102.142 89.051,76.455 C89.051,50.767 67.109,33 44.526,33 C21.942,33 0,54.192 0,74.742" id="Fill-229" fill="#E57042"></path>
            <path d="M0,74.742 C0,101.286 19.694,121.836 43.241,121.836 C66.788,121.836 89.051,102.142 89.051,76.455 C89.051,50.767 67.109,33 44.526,33 C21.942,33 0,54.192 0,74.742 Z" id="Stroke-230" stroke="#DA4E2A" stroke-width="4"></path>
            <path d="M68.624,56.812 C68.624,58.917 66.917,60.623 64.812,60.623 C62.707,60.623 61,58.917 61,56.812 C61,54.707 62.707,53 64.812,53 C66.917,53 68.624,54.707 68.624,56.812" id="Fill-231" fill="#DA4E2A"></path>
            <path d="M76.624,72.812 C76.624,74.917 74.917,76.623 72.812,76.623 C70.707,76.623 69,74.917 69,72.812 C69,70.707 70.707,69 72.812,69 C74.917,69 76.624,70.707 76.624,72.812" id="Fill-232" fill="#DA4E2A"></path>
            <path d="M64.725,83.362 C64.725,85.771 62.772,87.724 60.363,87.724 C57.953,87.724 56,85.771 56,83.362 C56,80.953 57.953,79 60.363,79 C62.772,79 64.725,80.953 64.725,83.362" id="Fill-233" fill="#DA4E2A"></path>
            <path d="M56.235,69.117 C56.235,70.287 55.287,71.235 54.118,71.235 C52.948,71.235 52,70.287 52,69.117 C52,67.948 52.948,67 54.118,67 C55.287,67 56.235,67.948 56.235,69.117" id="Fill-234" fill="#DA4E2A"></path>
        </g>
    </g>
</svg>